<svg width="18" height="18" viewBox="0 0 18 18" fill="none" xmlns="http://www.w3.org/2000/svg">
<path d="M8.95705 0.554199C6.62024 0.554199 6.32725 0.564096 5.40947 0.60609C4.49355 0.647951 3.86809 0.793727 3.32081 1.00691C2.75499 1.22731 2.27521 1.52234 1.79678 2.0018C1.31847 2.48126 1.02429 2.96232 0.804414 3.52951C0.591746 4.07811 0.446187 4.70508 0.404427 5.6232C0.362534 6.54306 0.352661 6.83689 0.352661 9.17934C0.352661 11.5217 0.362534 11.8154 0.404427 12.7353C0.446187 13.6535 0.591746 14.2804 0.804414 14.829C1.02429 15.3962 1.31847 15.8772 1.79678 16.3568C2.27521 16.8362 2.75499 17.1311 3.32081 17.3515C3.86809 17.5648 4.49355 17.7106 5.40947 17.7525C6.32725 17.7945 6.62024 17.8044 8.95705 17.8044C11.2939 17.8044 11.5869 17.7945 12.5045 17.7525C13.4204 17.7106 14.0459 17.5648 14.5932 17.3515C15.159 17.1311 15.6389 16.8362 16.1172 16.3568C16.5955 15.8772 16.8898 15.3962 17.1097 14.829C17.3224 14.2804 17.4678 13.6535 17.5095 12.7353C17.5514 11.8154 17.5613 11.5217 17.5613 9.17934C17.5613 6.83689 17.5514 6.54306 17.5095 5.6232C17.4678 4.70508 17.3224 4.07811 17.1097 3.52951C16.8898 2.96232 16.5955 2.48126 16.1172 2.0018C15.6389 1.52234 15.159 1.22731 14.5932 1.00691C14.0459 0.793727 13.4204 0.647951 12.5045 0.60609C11.5869 0.564096 11.2939 0.554199 8.95705 0.554199ZM8.95705 2.10826C11.2545 2.10826 11.5265 2.11708 12.4339 2.15854C13.2729 2.19692 13.7283 2.33735 14.0316 2.45544C14.4332 2.61192 14.7199 2.79889 15.0209 3.10074C15.322 3.40245 15.5085 3.68986 15.6646 4.09242C15.7824 4.39641 15.9225 4.853 15.9608 5.69395C16.0022 6.60352 16.011 6.87621 16.011 9.17934C16.011 11.4822 16.0022 11.755 15.9608 12.6646C15.9225 13.5054 15.7824 13.9621 15.6646 14.2661C15.5085 14.6687 15.322 14.956 15.0209 15.2578C14.7199 15.5597 14.4332 15.7465 14.0316 15.903C13.7283 16.0212 13.2729 16.1616 12.4339 16.2C11.5267 16.2415 11.2546 16.2503 8.95705 16.2503C6.65933 16.2503 6.38729 16.2415 5.48005 16.2C4.64125 16.1616 4.18563 16.0212 3.88237 15.903C3.48078 15.7465 3.1942 15.5597 2.89307 15.2578C2.59195 14.956 2.40556 14.6687 2.24946 14.2661C2.13166 13.9621 1.99143 13.5054 1.95314 12.6646C1.91178 11.755 1.90298 11.4822 1.90298 9.17934C1.90298 6.87621 1.91178 6.60352 1.95314 5.69395C1.99143 4.853 2.13166 4.39641 2.24946 4.09242C2.40556 3.68986 2.59195 3.40245 2.89307 3.10074C3.1942 2.79889 3.48078 2.61192 3.88237 2.45544C4.18563 2.33735 4.64125 2.19692 5.48005 2.15854C6.38742 2.11708 6.6596 2.10826 8.95705 2.10826Z" fill="#0E80E1"/>
<path d="M8.9587 12.0576C7.37462 12.0576 6.09048 10.7704 6.09048 9.18261C6.09048 7.59472 7.37462 6.30747 8.9587 6.30747C10.5426 6.30747 11.8268 7.59472 11.8268 9.18261C11.8268 10.7704 10.5426 12.0576 8.9587 12.0576ZM8.9587 4.75342C6.51835 4.75342 4.54016 6.73638 4.54016 9.18261C4.54016 11.6287 6.51835 13.6117 8.9587 13.6117C11.3989 13.6117 13.3771 11.6287 13.3771 9.18261C13.3771 6.73638 11.3989 4.75342 8.9587 4.75342Z" fill="#0E80E1"/>
<path d="M14.5819 4.57945C14.5819 5.15105 14.1196 5.61446 13.5492 5.61446C12.979 5.61446 12.5167 5.15105 12.5167 4.57945C12.5167 4.00771 12.979 3.54443 13.5492 3.54443C14.1196 3.54443 14.5819 4.00771 14.5819 4.57945Z" fill="#0E80E1"/>
</svg>
