<svg width="19" height="19" viewBox="0 0 19 19" fill="none" xmlns="http://www.w3.org/2000/svg">
<path d="M5.00575 18.8043H1.27344V6.75835H5.00575V18.8043ZM3.1376 5.11426C1.9455 5.11426 0.977417 4.12379 0.977417 2.92882C0.977417 1.73384 1.9455 0.763428 3.1376 0.763428C4.3297 0.763428 5.29778 1.73384 5.29778 2.92882C5.30178 4.12379 4.3337 5.11426 3.1376 5.11426ZM18.9749 18.8043H15.2506V12.9377C15.2506 11.5383 15.2226 9.74579 13.3104 9.74579C11.3703 9.74579 11.0743 11.2656 11.0743 12.8335V18.8043H7.34595V6.75835H10.9263V8.40245H10.9783C11.4783 7.45609 12.6944 6.4576 14.5106 6.4576C18.2829 6.45359 18.9789 8.9478 18.9789 12.1879V18.8043H18.9749Z" fill="#0E80E1"/>
</svg>
