<svg width="23" height="18" viewBox="0 0 23 18" fill="none" xmlns="http://www.w3.org/2000/svg">
<path d="M22.255 2.28811C22.1422 2.75819 22.0237 3.22827 21.9165 3.70363C21.2169 6.76179 20.5229 9.81995 19.8232 12.8781C19.5242 14.1933 19.2252 15.5137 18.9148 16.8289C18.8753 16.9979 18.802 17.1722 18.7174 17.3254C18.4804 17.7374 18.0967 17.8958 17.6171 17.7532C17.3971 17.6898 17.1827 17.5947 16.9965 17.4733C15.4392 16.4169 13.8933 15.3553 12.3473 14.2936C12.2909 14.2567 12.2345 14.2197 12.1668 14.1721C12.116 14.2144 12.0652 14.2461 12.0201 14.2883C11.2189 15.0014 10.4177 15.7144 9.62213 16.4275C9.38515 16.6387 9.11433 16.7708 8.75887 16.7497C8.78708 16.3377 8.81529 15.9415 8.8435 15.5401C8.90557 14.7056 8.97327 13.8711 9.03534 13.0366C9.04662 12.9045 9.08047 12.7725 9.06355 12.6457C8.99584 12.1651 9.28359 11.8851 9.63341 11.5893C12.4997 9.1967 15.3546 6.7882 18.2152 4.38499C18.2547 4.34801 18.3111 4.3216 18.3337 4.27407C18.3788 4.19484 18.407 4.10505 18.4409 4.02054C18.345 3.99413 18.2378 3.93075 18.1531 3.95188C17.9782 3.99413 17.8033 4.05751 17.6566 4.1473C13.9328 6.3234 10.2089 8.50478 6.48506 10.6914C6.37786 10.7548 6.29322 10.7865 6.15781 10.7495C4.57799 10.2847 2.99818 9.82523 1.41836 9.36043C1.22652 9.30233 1.03469 9.21782 0.871064 9.11219C0.566385 8.91148 0.526889 8.6157 0.803358 8.37274C1.00648 8.19844 1.24909 8.03998 1.50299 7.95019C2.83455 7.45371 4.17175 6.98363 5.50896 6.50298C10.5869 4.68077 15.6706 2.85855 20.7486 1.04161C20.9122 0.983512 21.0871 0.94654 21.2564 0.935976C21.7134 0.904285 22.0519 1.13668 22.193 1.54866C22.2099 1.5962 22.2325 1.64374 22.2494 1.69127C22.255 1.89198 22.255 2.08741 22.255 2.28811Z" fill="#0E80E1"/>
</svg>
