<svg width="19" height="16" viewBox="0 0 19 16" fill="none" xmlns="http://www.w3.org/2000/svg">
<path d="M18.9774 2.57259C18.2977 2.87377 17.5737 3.0762 16.8053 3.17001C17.5835 2.70096 18.1844 1.96037 18.4652 1.07165C17.7362 1.50614 16.9285 1.82212 16.0665 1.98999C15.3769 1.25433 14.3968 0.795166 13.3083 0.795166C11.2199 0.795166 9.53047 2.4936 9.53047 4.58701C9.53047 4.88325 9.56495 5.16962 9.62898 5.45104C6.48656 5.28811 3.7037 3.7773 1.83696 1.48639C1.51189 2.04924 1.32965 2.70096 1.32965 3.39219C1.32965 4.70551 1.9995 5.86578 3.00921 6.54712C2.38861 6.52737 1.80741 6.35457 1.29517 6.07314V6.12251C1.29517 7.95919 2.59548 9.48976 4.32923 9.83537C4.00907 9.9193 3.67907 9.96867 3.33429 9.96867C3.09295 9.96867 2.8516 9.94399 2.62503 9.89955C3.10772 11.4054 4.50162 12.5015 6.15656 12.5311C4.86117 13.5482 3.23086 14.1555 1.46263 14.1555C1.15726 14.1555 0.856805 14.1358 0.561279 14.1012C2.23592 15.1775 4.22087 15.8046 6.35358 15.8046C13.3083 15.8046 17.1058 10.0329 17.1058 5.02643C17.1058 4.8635 17.1008 4.70057 17.0959 4.53764C17.8298 3.99948 18.4701 3.33294 18.9774 2.57259Z" fill="#0E80E1"/>
</svg>
