<svg width="23" height="16" viewBox="0 0 23 16" fill="none" xmlns="http://www.w3.org/2000/svg">
<path d="M0.979004 11.7046C0.979004 9.43663 0.979004 7.16864 0.979004 4.90066C1.01427 4.69291 1.04366 4.47938 1.09069 4.27163C1.59033 2.171 3.34791 0.797519 5.54635 0.791748C9.71398 0.791748 13.8875 0.791748 18.0551 0.797519C18.396 0.797519 18.7487 0.826374 19.0838 0.901396C21.1999 1.38616 22.5989 3.1059 22.6107 5.24115C22.6225 7.27829 22.6166 9.32121 22.6107 11.3584C22.6107 12.3048 22.3521 13.1762 21.7819 13.9437C20.859 15.1845 19.6011 15.802 18.0375 15.802C13.8816 15.8078 9.72573 15.802 5.56986 15.802C5.4523 15.802 5.32886 15.802 5.21129 15.7962C3.46547 15.7096 1.86661 14.5555 1.28467 12.9454C1.13771 12.5472 1.07893 12.1201 0.979004 11.7046ZM9.08501 5.21229C8.83813 5.24115 8.82049 5.39696 8.82049 5.56432C8.82049 7.38794 8.82049 9.21156 8.82049 11.0352C8.82049 11.3814 8.96745 11.4738 9.28487 11.3237C11.1835 10.435 13.0763 9.55204 14.9691 8.65178C15.069 8.60561 15.2042 8.47865 15.1983 8.39786C15.1924 8.29975 15.069 8.17279 14.9691 8.12085C13.0763 7.16864 11.1718 6.22221 9.27311 5.28154C9.20845 5.25269 9.13204 5.22961 9.08501 5.21229Z" fill="#0E80E1"/>
</svg>
